<svg xmlns="http://www.w3.org/2000/svg" width="311.499" height="49.586" viewBox="0 0 311.499 49.586">
    <defs>
        <style>
            .cls-1{fill:#ff4646}.cls-2{fill:#fff}
        </style>
    </defs>
    <g id="Group_457" data-name="Group 457" transform="translate(-243.086 -190.304)">
        <g id="Group_453" data-name="Group 453" transform="translate(305.391 198.99)">
            <path id="Path_1110" d="M329.922 205.492c-3.784 0-5.2 1.778-5.2 3.6 0 5.972 16.64 3.191 16.64 14.589 0 5.562-3.921 9.027-11.443 9.027-5.425 0-9.757-2.69-11.534-5.562a2.452 2.452 0 0 1 2.052-3.738 2.67 2.67 0 0 1 2.005 1 10.453 10.453 0 0 0 7.477 3.465c4.149 0 6.155-1.367 6.155-4.194 0-6.656-16.641-3.6-16.641-14.589 0-4.513 3.238-8.342 10.486-8.342 4.559 0 8.525 1.687 10.349 4.285a2.637 2.637 0 0 1 .456 1.459 2.442 2.442 0 0 1-2.462 2.416 3.019 3.019 0 0 1-1.96-1 9.423 9.423 0 0 0-6.38-2.416z" data-name="Path 1110" transform="translate(-318.024 -200.751)"/>
            <path id="Path_1111" d="M355.431 215.068v10.839c0 2.14.744 4.187 4.187 4.187 3.4 0 4.14-2.047 4.14-4.187v-10.839a2.512 2.512 0 1 1 5.023 0v10.839c0 4.559-1.721 8.746-9.164 8.746-7.489 0-9.21-4.187-9.21-8.746v-10.839a2.512 2.512 0 1 1 5.023 0z" data-name="Path 1111" transform="translate(-323.483 -202.741)"/>
            <path id="Path_1112" d="M388.616 212.221c6.094 0 9.444 3.582 9.444 11.164s-3.4 11.211-9.444 11.211a7.381 7.381 0 0 1-5.489-2v8.234a2.512 2.512 0 1 1-5.024 0v-25.819a2.512 2.512 0 0 1 5.024 0 6.885 6.885 0 0 1 5.489-2.79zm-.651 4.279c-3.256 0-4.978 2.325-4.978 6.932 0 4.559 1.722 6.884 4.978 6.884s4.978-2.325 4.978-6.884c0-4.606-1.721-6.932-4.978-6.932z" data-name="Path 1112" transform="translate(-328.152 -202.685)"/>
            <path id="Path_1113" d="M417.376 212.221c6.094 0 9.443 3.582 9.443 11.164s-3.4 11.211-9.443 11.211a7.38 7.38 0 0 1-5.489-2v8.234a2.512 2.512 0 1 1-5.024 0v-25.819a2.512 2.512 0 0 1 5.024 0 6.885 6.885 0 0 1 5.489-2.79zm-.652 4.279c-3.256 0-4.977 2.325-4.977 6.932 0 4.559 1.721 6.884 4.977 6.884s4.978-2.325 4.978-6.884c-.002-4.606-1.721-6.932-4.978-6.932z" data-name="Path 1113" transform="translate(-333.001 -202.685)"/>
            <path id="Path_1114" d="M444.355 234.6c-6.28 0-10.187-3.582-10.187-11.164 0-7.629 3.908-11.211 10.187-11.211s10.187 3.582 10.187 11.211c.001 7.578-3.907 11.164-10.187 11.164zm0-18.1c-3.349 0-5.117 2.325-5.117 6.932 0 4.559 1.768 6.884 5.117 6.884s5.117-2.325 5.117-6.884c.001-4.606-1.772-6.932-5.117-6.932z" data-name="Path 1114" transform="translate(-337.604 -202.685)"/>
            <path id="Path_1115" d="M468.118 215.253a5.794 5.794 0 0 1 5.024-2.977 2.372 2.372 0 1 1 0 4.745c-3.21 0-5.024 2.047-5.024 5.164v9.676a2.512 2.512 0 0 1-5.023 0v-16.84a2.512 2.512 0 1 1 5.023 0z" data-name="Path 1115" transform="translate(-342.48 -202.694)"/>
            <path id="Path_1116" d="M483.659 207.8a2.465 2.465 0 1 1 4.93 0v3.908h2.093a2.093 2.093 0 1 1 0 4.186h-2.093v11.258a1.714 1.714 0 0 0 1.768 1.674 2.186 2.186 0 0 1 0 4.372c-4.14 0-6.7-2.651-6.7-6.326V215.9h-1.07a2.093 2.093 0 1 1 0-4.186h1.07z" data-name="Path 1116" transform="translate(-345.414 -201.524)"/>
            <path id="Path_1117" d="M505.419 229.732a2.7 2.7 0 1 1-5.4 0v-26.283a2.7 2.7 0 0 1 2.7-2.7h14.513a2.419 2.419 0 1 1 0 4.837h-11.813v8.606h8.791a2.372 2.372 0 1 1 0 4.745h-8.791z" data-name="Path 1117" transform="translate(-348.706 -200.751)"/>
            <path id="Path_1118" d="M529.578 200.751c-2.366 0-3.669 1.334-3.669 3.757a3.692 3.692 0 0 0 7.382 0c0-2.423-1.318-3.757-3.713-3.757z" data-name="Path 1118" transform="translate(-353.069 -200.751)"/>
            <path id="Path_1119" d="M569.416 200.751c-2.366 0-3.669 1.334-3.669 3.757a3.692 3.692 0 0 0 7.383 0c0-2.423-1.319-3.757-3.714-3.757z" data-name="Path 1119" transform="translate(-359.785 -200.751)"/>
            <path id="Path_1120" d="M532.351 231.908a2.512 2.512 0 0 1-5.024 0v-16.84a2.512 2.512 0 0 1 5.024 0z" data-name="Path 1120" transform="translate(-353.309 -202.741)"/>
            <path id="Path_1121" d="M557.759 220.315v11.63a2.424 2.424 0 0 1-2.513 2.419 2.371 2.371 0 0 1-2.512-2.419v-10.7c0-2.651-1.07-4.466-4.094-4.466-3.489 0-4.652 2.046-4.652 4.791v10.374a2.514 2.514 0 0 1-5.023 0v-16.933a2.512 2.512 0 1 1 5.023 0 6.893 6.893 0 0 1 5.955-2.79c6.328 0 7.816 4.047 7.816 8.094z" data-name="Path 1121" transform="translate(-355.271 -202.685)"/>
            <path id="Path_1122" d="M572.189 231.908a2.512 2.512 0 0 1-5.024 0v-16.84a2.512 2.512 0 0 1 5.024 0z" data-name="Path 1122" transform="translate(-360.024 -202.741)"/>
            <path id="Path_1123" d="M580.121 207.8a2.466 2.466 0 1 1 4.931 0v3.908h2.094a2.093 2.093 0 1 1 0 4.186h-2.094v11.258a1.714 1.714 0 0 0 1.768 1.674 2.186 2.186 0 1 1 0 4.372c-4.14 0-6.7-2.651-6.7-6.326V215.9h-1.07a2.093 2.093 0 1 1 0-4.186h1.07z" data-name="Path 1123" transform="translate(-361.675 -201.524)"/>
            <path id="Path_1124" d="M600.951 232.559l-7.163-16.514a2.6 2.6 0 0 1-.185-.978 2.5 2.5 0 0 1 2.512-2.512 2.45 2.45 0 0 1 2.326 1.581l5.117 12.933 5.117-12.933a2.45 2.45 0 0 1 2.325-1.58 2.5 2.5 0 0 1 2.512 2.512 2.618 2.618 0 0 1-.185.978l-8.653 19.538c-2.047 4.559-4.978 7.815-9.63 7.815a2.328 2.328 0 1 1 0-4.652c2.976 0 4.372-2.373 5.907-6.188z" data-name="Path 1124" transform="translate(-364.316 -202.741)"/>
        </g>
        <rect id="Rectangle_523" width="49.586" height="49.586" class="cls-1" data-name="Rectangle 523" rx="8.325" transform="translate(243.086 190.304)"/>
        <g id="Group_456" data-name="Group 456" transform="translate(248.486 199.127)">
            <g id="Group_455" data-name="Group 455">
                <g id="Group_454" data-name="Group 454">
                    <path id="Path_1125" d="M279.988 232.295h-8.548a4.412 4.412 0 0 1-4.407-4.407l.03-8.857h-8.817a7.825 7.825 0 0 1-7.817-7.816v-1.634a7.825 7.825 0 0 1 7.817-7.816h8.505a4.36 4.36 0 0 1 4.361 4.375l-.03 8.889h8.906a7.825 7.825 0 0 1 7.817 7.816v1.634a7.825 7.825 0 0 1-7.817 7.816zm-8.919-13.26l-.03 8.86a.4.4 0 0 0 .4.394h8.548a3.815 3.815 0 0 0 3.811-3.81v-1.634a3.815 3.815 0 0 0-3.811-3.81zm-12.823-13.264a3.816 3.816 0 0 0-3.811 3.81v1.634a3.815 3.815 0 0 0 3.811 3.81h8.83l.03-8.9a.355.355 0 0 0-.355-.356z" class="cls-2" data-name="Path 1125" transform="translate(-249.724 -201.059)"/>
                    <path id="Path_1126" d="M279.845 232.857H271.3a5.117 5.117 0 0 1-5.112-5.112l.027-8.151H258.1a8.532 8.532 0 0 1-8.522-8.522v-1.633a8.532 8.532 0 0 1 8.522-8.523h8.505a5.067 5.067 0 0 1 5.07 5.084l-.028 8.18h8.2a8.532 8.532 0 0 1 8.522 8.522v1.633a8.532 8.532 0 0 1-8.524 8.522zm-21.745-30.53a7.12 7.12 0 0 0-7.111 7.112v1.633a7.119 7.119 0 0 0 7.111 7.111h9.525l-.032 9.565a3.7 3.7 0 0 0 3.7 3.7h8.549a7.119 7.119 0 0 0 7.111-7.112V222.7a7.119 7.119 0 0 0-7.111-7.111h-9.614l.032-9.6a3.655 3.655 0 0 0-3.656-3.667zm21.742 26.524H271.3a1.1 1.1 0 0 1-1.106-1.1l.032-9.566h9.623a4.522 4.522 0 0 1 4.516 4.516v1.633a4.521 4.521 0 0 1-4.52 4.517zm-8.243-1.41h8.243a3.11 3.11 0 0 0 3.105-3.106V222.7a3.109 3.109 0 0 0-3.105-3.105h-8.217zm-3.967-11.853H258.1a4.522 4.522 0 0 1-4.516-4.516v-1.633a4.521 4.521 0 0 1 4.516-4.516h8.505a1.06 1.06 0 0 1 1.061 1.061zm-9.533-9.255a3.109 3.109 0 0 0-3.099 3.106v1.633a3.108 3.108 0 0 0 3.105 3.105h8.127l.027-7.844z" class="cls-2" data-name="Path 1126" transform="translate(-249.581 -200.916)"/>
                </g>
            </g>
        </g>
    </g>
</svg>
