<svg xmlns="http://www.w3.org/2000/svg" width="379.099" height="443.601" viewBox="0 0 379.099 443.601">
    <defs>
        <style>
            .cls-1{fill:#b5e5fb}.cls-2{fill:#12446a}.cls-3{fill:#2bb6ed}.cls-5{fill:#e82f39}.cls-6{fill:#fff}
        </style>
    </defs>
    <g id="Group_1359" data-name="Group 1359" transform="translate(548.149 -373.894)">
        <g id="Group_1341" data-name="Group 1341">
            <path id="Path_2567" d="M-496.058 394.31c-1.311.489-5.235 9.993-5.7 13.587l-3.881 11.824 10.259.218s2.534-9.49 2.625-9.494a5.571 5.571 0 0 0 3.511-1.439c1.313-1.079 6.041-8.625 3.639-10.81a31.942 31.942 0 0 0-5.708-3.525s-3.646-.771-4.745-.361z" class="cls-1" data-name="Path 2567"/>
            <path id="Path_2568" d="M-399.567 439.677c-38.415-10.536-102.956 28.811-113.161 33.954-11.473 5.775-6.276 21.657 8.921 18.929 4.851-.878 88.935-26.739 93.019-29.046" class="cls-2" data-name="Path 2568"/>
            <path id="Path_2569" d="M-503.416 490.964c4.7-14.629 8.416-60.364 11.106-70.735.943-3.617 3.847-3.423 1.221-6.517-1.919-2.26-5.7-3.654-8.785-4.352a10.19 10.19 0 0 0-4.76-.161c-1.945.674-.971 4.211-1.906 5.75-3.671 6.047-22.313 68.089-18.7 72.376 1.82 2.158 6.787 4.187 9.413 5.287 3.976 1.646 11.327 1.734 12.411-1.648z" class="cls-2" data-name="Path 2569"/>
        </g>
        <path id="Path_2570" d="M-444.939 405.37l.254-2.571L-487 396.63l-52.42-5.566-1.063 10.8 52.687 2.855z" class="cls-2" data-name="Path 2570"/>
        <path id="Path_2571" d="M-487.884 396.558s.161 3-5.1 3.045-3.811-4.52-3.811-4.52a21.169 21.169 0 0 1 8.911 1.475z" class="cls-1" data-name="Path 2571"/>
        <path id="Path_2572" d="M-417.3 448.129s-1.007 10.579 8.464 9.725c10.084-.907 9.887-11.376 9.887-11.376l-2.739-24.7-18.349 1.651z" class="cls-1" data-name="Path 2572"/>
        <path id="Path_2573" d="M-310.306 600.359s-16.589 9.543-32.672 9.778c-21.1.31-17.344-34.048-17.344-34.048s13.364-5.178 18.971-.754 31.045 25.024 31.045 25.024z" class="cls-3" data-name="Path 2573"/>
        <path id="Path_2574" fill="#f1f1f5" d="M-402.234 590.515l57.327-5.158s24.9-135.9-15.3-151.178c-7.222-2.743-68.168 7.152-71.221 27.4-10.182 67.685 29.194 128.936 29.194 128.936z" data-name="Path 2574"/>
        <path id="Path_2575" d="M-409.726 440.971s-1.367 72.151 31.726 108.265 67.7 51.122 67.7 51.122-27.638-24.5-25.573-55.329.679-108.2-24.066-111.915c-23.185-3.481-49.787 7.857-49.787 7.857z" class="cls-2" data-name="Path 2575"/>
        <path id="Path_2576" d="M-402.158 593.283s-48.082-78.018-30.135-134.4c1.478-4.647 4.188-11 14.86-11.966-.173.174-43.465 21.107 15.535 144.5z" class="cls-2" data-name="Path 2576"/>
        <path id="Path_2577" d="M-417.612 445.3l4.473 5.85-6.631 8.871-2.454-8.791z" class="cls-5" data-name="Path 2577"/>
        <path id="Path_2578" d="M-418.467 456.457a249.264 249.264 0 0 0 25.809 87.171q-2.241 6.746-4.092 13.746-6.637-4.386-13.115-9.206a253.682 253.682 0 0 1-10.122-92.3c.508.201 1.018.395 1.52.589z" class="cls-5" data-name="Path 2578"/>
        <path id="Path_2579" d="M-339.7 610.821c-3.584 6.251-21.609 14.239-29.383 14.936-7.642.688-29.6-5.256-32.281-10.467-1.833-3.545-3.78-28.978-3.78-28.978l62.979-5.668s7.948 20.631 2.465 30.177z" class="cls-2" data-name="Path 2579"/>
        <g id="Group_1344" data-name="Group 1344">
            <g id="Group_1342" data-name="Group 1342">
                <path id="Path_2580" d="M-506.942 803.083s3.156 12.835-3.633 13.156-38.058 3.629-37.568-2c.1-1.3 14.856-7.606 25.1-11.074a26.216 26.216 0 0 1 16.101-.082z" class="cls-2" data-name="Path 2580"/>
            </g>
            <g id="Group_1343" data-name="Group 1343">
                <path id="Path_2581" d="M-520.055 768.273c-1.9 7.7-1.639 35.025.491 36.151 1.817.952 12.1 1.006 12.455-.221 1.32-4.6 4.306-33.877 4.306-33.877s.069-5.973-5.609-7.107c-8.322-1.667-10.861 1.866-11.643 5.054z" class="cls-1" data-name="Path 2581"/>
            </g>
            <path id="Path_2582" d="M-403.52 586.509s-95.792 60.3-114.209 90.824c-5.75 9.523 15.759 22.171 16.311 22.406l123.96-80.754z" class="cls-2" data-name="Path 2582"/>
            <path id="Path_2583" d="M-518.878 680.159c-8.622 91.843-3.706 106.813-3.13 118.1.083 1.539 18.227-.5 18.227-.5l14.52-108.546s-3.561-12.931-11.7-13.616c-9.915-.849-17.47-.226-17.917 4.562z" class="cls-2" data-name="Path 2583"/>
        </g>
        <g id="Group_1349" data-name="Group 1349">
            <g id="Group_1347" data-name="Group 1347">
                <g id="Group_1346" data-name="Group 1346">
                    <g id="Group_1345" data-name="Group 1345">
                        <path id="Path_2584" d="M-185.735 772.808c5.029-4.876 13.274-1.506 13.274-1.506s7.011 20.978.932 25.922c-6.734 5.491-13.549 10.067-15.472 7.671-.582-.728 3.8-7.916 3.858-10.951s-3.28-7.567-4.679-10.352c-3.744-7.451-1.504-7.306 2.087-10.784z" class="cls-2" data-name="Path 2584"/>
                    </g>
                </g>
            </g>
            <g id="Group_1348" data-name="Group 1348">
                <path id="Path_2585" d="M-222.66 762.878c6.741 5.632 32.819 20.229 34.554 19.2 1.474-.883 4.723-8.763 3.669-9.7-3.964-3.509-30.892-21.663-30.892-21.663s-5.666-3.292-8.511.466c-4.179 5.501-1.614 9.366 1.18 11.697z" class="cls-1" data-name="Path 2585"/>
            </g>
            <path id="Path_2586" d="M-402.158 593.283s61.66 101.582 92.838 124.183c9.731 7.06 28.34-12.259 28.653-12.8l-58.412-110.438s-5.371-3.384-14.823-.535c-16.029 4.818-48.256-.41-48.256-.41z" class="cls-2" data-name="Path 2586"/>
            <path id="Path_2587" d="M-309.246 717.649c85.572 55.437 102.355 58.654 113.608 63.953 1.534.726 7.7-17.038 7.7-17.038l-99.187-69.5s-14.19-3.408-18.517 3.728c-5.271 8.691-8.058 15.972-3.604 18.857z" class="cls-2" data-name="Path 2587"/>
        </g>
        <path id="Path_2588" d="M-413.138 451.149l16.309-10.13-3.094-6.827-17.688 11.108z" class="cls-6" data-name="Path 2588"/>
        <path id="Path_2589" d="M-422.223 451.23l4.613-5.93-.567-5.117-7.337 5.2z" class="cls-6" data-name="Path 2589"/>
        <g id="Group_1350" data-name="Group 1350">
            <path id="Path_2590" d="M-441.724 399.589c-2.867 15.109-6.344 28.739 1.464 31.856 6.191 2.471 21.671.289 21.671.289s12.382-1.745 16.812-16.53 2.6-28.515-9.972-31.57c-10.891-2.651-22.1-5.2-27.074 5.374a85 85 0 0 0-2.901 10.581z" class="cls-1" data-name="Path 2590"/>
            <path id="Path_2591" d="M-444.252 386.84c-.073-.117-.141-.231-.208-.349-.977-1.733-2.207-4.649-1.766-6.676.1 1.093 1.526 1.874 2.483 2.379-1.837-2.608-1.669-5.35-1.28-8.3.791 3.574 6.083 3.8 9.042 2.8 11.86-3.991 20.838-1.449 31.576 3.878 7.218 3.59 11.292 11.648 10.588 16.57-1.116 7.837-3.8 25.018-7.765 28.921-2.9 2.849-5.364-6.4-5.759-7.873-.854-3.188-2.385-10.336-7.615-9.566-1.974.29-1.2 4.633-1.891 6.214-.478 1.089-5.384-.015-5.384-.015l4.991-17.776a20.337 20.337 0 0 0-9.281-5.578c-4.978-1.23-7.04 1.365-12.215.03-2.857-.731-4.064-2.325-5.516-4.659z" class="cls-2" data-name="Path 2591"/>
            <path id="Path_2592" d="M-417.068 412.027c-.438 2.9 1.13 5.487 3.5 5.777s4.643-1.827 5.08-4.726-1.134-5.487-3.5-5.773-4.646 1.826-5.08 4.722z" class="cls-1" data-name="Path 2592"/>
            <path id="Path_2593" d="M-442.135 403.624s-3.3 7.5-5.829 9.982c-.924.9 5.269 1.179 5.269 1.179z" class="cls-1" data-name="Path 2593"/>
        </g>
        <g id="Group_1355" data-name="Group 1355">
            <path id="Path_2602" d="M-175.9 633.093l-14.644-57.665-101.9 21.008L-277.8 654.1z" class="cls-2" data-name="Path 2602"/>
            <path id="Path_2594" d="M-225.082 572.842l5.714 22.509-3.779.779-4.562-17.974-29.945 6.174 4.564 17.974-3.773.777-5.716-22.507z" class="cls-2" data-name="Path 2594"/>
            <g id="Group_1352" data-name="Group 1352">
                <g id="Group_1351" data-name="Group 1351">
                    <path id="Path_2595" d="M-185.929 593.6c-1.42 2.965-2.875 5.918-4.238 8.9l.2-.153q-11.3 2.13-22.528 4.52-11.244 2.344-22.407 5 11.34-1.971 22.591-4.273 11.267-2.256 22.469-4.755l.147-.033.051-.12c1.287-3.007 2.485-6.053 3.715-9.086z" class="cls-3" data-name="Path 2595"/>
                </g>
            </g>
            <g id="Group_1354" data-name="Group 1354">
                <g id="Group_1353" data-name="Group 1353">
                    <path id="Path_2596" d="M-287.826 614.6c2.573 2.25 5.121 4.526 7.737 6.735l.1.088.149-.026q11.3-2.133 22.527-4.522 11.244-2.344 22.4-5-11.337 1.971-22.589 4.275-11.259 2.25-22.465 4.75l.252.061c-2.663-2.161-5.401-4.244-8.111-6.361z" class="cls-3" data-name="Path 2596"/>
                </g>
            </g>
            <path id="Path_2597" d="M-246.309 617.269l24.284-5.005-1.472-5.785-24.282 5.01z" class="cls-6" data-name="Path 2597"/>
            <path id="Path_2598" d="M-230.4 616.329l-1.732-6.84-6.418 1.326 1.739 6.841z" class="cls-6" data-name="Path 2598"/>
        </g>
        <g id="Group_1356" data-name="Group 1356">
            <path id="Path_2599" d="M-249.508 577.881s-.259-2.28-.215-2.942a5.433 5.433 0 0 1 1.88-3.165c.057-.055-4.745-7.3-4.745-7.3l6.49-5.456 5.527 9.423a43.073 43.073 0 0 1 5.712 8.429c1.967 4.612-1.793 4.867-5.092 5.552a6.441 6.441 0 0 1-3.973-.926s-1.737-4.128-1.578-4.653c-.387 1.298-4.006 1.038-4.006 1.038z" class="cls-1" data-name="Path 2599"/>
            <path id="Path_2600" d="M-371.232 432.593c45.413-3.793 92.121 51.724 98.559 60.52 5.1 6.969-.533 22.382-14.321 16.009-4.406-2.035-77.993-43.208-85.555-47.082" class="cls-2" data-name="Path 2600"/>
            <path id="Path_2601" d="M-272.673 493.114c8.5 4.917 24.089 56.831 29.442 66.33 1.867 3.312 4.636 2.5 2.9 6.069-1.268 2.6-4.566 4.763-7.388 6.106a9.961 9.961 0 0 1-4.582 1.175c-2.067-.237-2.054-3.881-3.371-5.176-5.158-5.086-39.625-61.368-37.241-66.3 1.2-2.487 5.486-5.527 7.749-7.152 3.424-2.448 9.198-2.954 12.491-1.052z" class="cls-2" data-name="Path 2601"/>
        </g>
    </g>
</svg>
